<?xml version="1.0" encoding="UTF-8" standalone="no"?>
<svg width="46px" height="48px" viewBox="0 0 46 48" version="1.1" xmlns="http://www.w3.org/2000/svg" xmlns:xlink="http://www.w3.org/1999/xlink" xmlns:sketch="https://web.archive.org/web/20151128205606/http://www.bohemiancoding.com/sketch/ns">
    <!-- Generator: Sketch 3.3.3 (12081) - http://www.bohemiancoding.com/sketch -->
    <title>Twitch_icon</title>
    <desc>Created with Sketch.</desc>
    <defs></defs>
    <g id="Welcome" stroke="none" stroke-width="1" fill="none" fill-rule="evenodd" sketch:type="MSPage">
        <g id="Desktop-HD---Twitch-Intagration---Account-01" sketch:type="MSArtboardGroup" transform="translate(-567.000000, -257.000000)">
            <g id="//-Modal" sketch:type="MSLayerGroup" transform="translate(320.000000, 187.000000)">
                <g id="//-Settings" transform="translate(191.000000, 0.000000)" sketch:type="MSShapeGroup">
                    <g id="Group">
                        <g id="Rectangle-1083-+-Bitmap-+-Bitmap" transform="translate(44.000000, 59.000000)">
                            <g id="Group">
                                <g id="Bitmap-+-Bitmap">
                                    <g>
                                        <g id="Rectangle-1083-+-Twitch_icon">
                                            <g id="Twitch_icon">
                                                <rect id="Rectangle-1083" x="0" y="0" width="70" height="70" rx="3"></rect>
                                                <path d="M45.4526215,52.7360478 L36.0605698,52.0334531 L29.7734488,59.0000478 L23.0119476,59.0000478 L23.0119476,53.0975019 L12,53.0054647 L12,19.3479678 L15.1370851,11.0000478 L58,11.0000478 L58,40.2198078 L45.4526215,52.7360478 Z M54,38.2601118 L54,15 L19,15 L19,46.0395622 L27.9602928,46.0395622 L28.1272659,51.9854431 L35.0332432,46.0395622 L46.0452118,45.8589725 L54,38.2601118 Z" id="Fill-3" fill="#6441A5"></path>
                                                <path d="M31,36 L35,36 L35,24 L31,24 L31,36 Z M42,36 L46,36 L46,24 L42,24 L42,36 Z" id="Fill-5" fill="#6441A5"></path>
                                            </g>
                                        </g>
                                    </g>
                                </g>
                            </g>
                        </g>
                    </g>
                </g>
            </g>
        </g>
    </g>
</svg>