<?xml version="1.0" encoding="utf-8"?>
<!-- Generator: Adobe Illustrator 17.1.0, SVG Export Plug-In . SVG Version: 6.00 Build 0)  -->
<!DOCTYPE svg PUBLIC "-//W3C//DTD SVG 1.1//EN" "http://www.w3.org/Graphics/SVG/1.1/DTD/svg11.dtd">
<svg version="1.1" id="Layer_1" xmlns="http://www.w3.org/2000/svg" xmlns:xlink="http://www.w3.org/1999/xlink" x="0px" y="0px"
	 viewBox="0 0 50 50" enable-background="new 0 0 50 50" xml:space="preserve">
<g id="interface_-_open_outgoing_link">
	<g>
		<path fill-rule="evenodd" clip-rule="evenodd" fill="#738BD7" d="M20.7,15.7l3.3-3.3V32c0,0.6,0.4,1,1,1c0.6,0,1-0.4,1-1V12.4
			l3.3,3.3c0.4,0.4,1,0.4,1.4,0c0.4-0.4,0.4-1,0-1.4l-4.9-4.9c0,0,0-0.1-0.1-0.1C25.5,9.1,25.3,9,25,9c0,0,0,0,0,0c0,0,0,0,0,0
			c0,0,0,0-0.1,0c-0.1,0-0.1,0-0.2,0c-0.2,0-0.3,0.1-0.4,0.2c0,0-0.1,0.1-0.1,0.1l-4.9,4.9c-0.4,0.4-0.4,1,0,1.4
			C19.7,16.1,20.3,16.1,20.7,15.7z M36,17h-3v2h2c0.6,0,1,0.4,1,1v18c0,0.6-0.4,1-1,1H15c-0.6,0-1-0.4-1-1V20c0-0.6,0.4-1,1-1h2v-2
			h-3c-1.1,0-2,0.9-2,2v20c0,1.1,0.9,2,2,2h22c1.1,0,2-0.9,2-2V19C38,17.9,37.1,17,36,17z"/>
	</g>
</g>
</svg>
