<?xml version="1.0" encoding="utf-8"?>
<!-- Generator: Adobe Illustrator 17.1.0, SVG Export Plug-In . SVG Version: 6.00 Build 0)  -->
<!DOCTYPE svg PUBLIC "-//W3C//DTD SVG 1.1//EN" "http://www.w3.org/Graphics/SVG/1.1/DTD/svg11.dtd">
<svg version="1.1" id="Layer_1" xmlns="http://www.w3.org/2000/svg" xmlns:xlink="http://www.w3.org/1999/xlink" x="0px" y="0px"
	 viewBox="0 0 18 18" enable-background="new 0 0 18 18" xml:space="preserve">
<g id="interface_-_tick_done_2_">
	<g>
		<path fill="#FFFFFF" d="M6.6,8C6.4,7.8,6.1,7.8,5.9,8C5.6,8.2,5.6,8.6,5.7,8.8L9,12c0,0,0,0.1,0.1,0.1c0.1,0.1,0.3,0.2,0.4,0.2
			s0.3,0,0.4-0.1c0,0,0-0.1,0.1-0.1l7.8-7.8c0.2-0.2,0.2-0.6,0-0.8c-0.2-0.2-0.6-0.2-0.8,0L9.6,11L6.6,8z M16.9,8.4
			c0,0.2,0,0.3,0,0.6c0,4.4-3.5,7.9-7.9,7.9S1.1,13.4,1.1,9S4.6,1.1,9,1.1c1.9,0,3.7,0.7,5.2,1.9L15,2.2C13.4,0.9,11.2,0,9,0
			C4,0,0,4,0,9s4,9,9,9s9-4.1,9-9c0-0.6,0-1-0.1-1.5L16.9,8.4z"/>
	</g>
</g>
</svg>
