<?xml version="1.0" encoding="utf-8"?>
<!-- Generator: Adobe Illustrator 17.1.0, SVG Export Plug-In . SVG Version: 6.00 Build 0)  -->
<!DOCTYPE svg PUBLIC "-//W3C//DTD SVG 1.1//EN" "http://www.w3.org/Graphics/SVG/1.1/DTD/svg11.dtd">
<svg version="1.1" id="Document__x26__Media" xmlns="http://www.w3.org/2000/svg" xmlns:xlink="http://www.w3.org/1999/xlink"
	 x="0px" y="0px" viewBox="0 0 16 16" enable-background="new 0 0 16 16" xml:space="preserve">
<g id="document_-_drawing__writing_board">
	<g>
		<path fill-rule="evenodd" clip-rule="evenodd" fill="#747F8D" d="M4,10h8V9H4V10z M4,8h8V7H4V8z M11.5,2V1H10c0-0.6-0.4-1-1-1H7
			C6.4,0,6,0.4,6,1H4.5v1H1v14h14V2H11.5z M5.5,2H7V1.5C7,1.2,7.2,1,7.5,1h1C8.8,1,9,1.2,9,1.5V2h1.5v2h-5V2z M14,15H2V3h2.5v2h7V3
			H14V15z M4,12h5v-1H4V12z"/>
	</g>
</g>
</svg>
