<?xml version="1.0" encoding="utf-8"?>
<!-- Generator: Adobe Illustrator 17.1.0, SVG Export Plug-In . SVG Version: 6.00 Build 0)  -->
<!DOCTYPE svg PUBLIC "-//W3C//DTD SVG 1.1//EN" "http://www.w3.org/Graphics/SVG/1.1/DTD/svg11.dtd">
<svg version="1.1" id="Layer_1" xmlns="http://www.w3.org/2000/svg" xmlns:xlink="http://www.w3.org/1999/xlink" x="0px" y="0px"
	 viewBox="0 0 16 16" enable-background="new 0 0 16 16" xml:space="preserve">
<g id="interface_-_cross_cancel_2_">
	<g>
		<path fill-rule="evenodd" clip-rule="evenodd" fill="#FFFFFF" d="M8.5,1C4.4,1,1,4.4,1,8.5C1,12.6,4.4,16,8.5,16
			c4.1,0,7.5-3.4,7.5-7.5C16,4.4,12.6,1,8.5,1z M8.5,15C4.9,15,2,12.1,2,8.5C2,4.9,4.9,2,8.5,2C12.1,2,15,4.9,15,8.5
			C15,12.1,12.1,15,8.5,15z M10.9,6.1c-0.2-0.2-0.5-0.2-0.7,0L8.5,7.8L6.8,6.1c-0.2-0.2-0.5-0.2-0.7,0c-0.2,0.2-0.2,0.5,0,0.7
			l1.7,1.7l-1.7,1.7c-0.2,0.2-0.2,0.5,0,0.7c0.2,0.2,0.5,0.2,0.7,0l1.7-1.7l1.7,1.7c0.2,0.2,0.5,0.2,0.7,0c0.2-0.2,0.2-0.5,0-0.7
			L9.2,8.5l1.7-1.7C11.1,6.6,11.1,6.3,10.9,6.1z"/>
	</g>
</g>
</svg>
