<?xml version="1.0" encoding="utf-8"?>
<!-- Generator: Adobe Illustrator 17.1.0, SVG Export Plug-In . SVG Version: 6.00 Build 0)  -->
<!DOCTYPE svg PUBLIC "-//W3C//DTD SVG 1.1//EN" "http://www.w3.org/Graphics/SVG/1.1/DTD/svg11.dtd">
<svg version="1.1" id="Layer_1" xmlns="http://www.w3.org/2000/svg" xmlns:xlink="http://www.w3.org/1999/xlink" x="0px" y="0px"
	 viewBox="0 0 22 22" enable-background="new 0 0 22 22" xml:space="preserve">
<g>
	<g id="communication_-_broadcast_megaphone_1_">
		<g>
			<path fill-rule="evenodd" clip-rule="evenodd" fill="#3C4042" d="M11.9,6.5H11v0.1c-0.2-0.1-0.3-0.1-0.5-0.1h-9
				C0.7,6.5,0,7.2,0,8v5c0,0.8,0.7,1.5,1.5,1.5h1.7l0.8,5l4-2l-0.8-3h3.2c0.2,0,0.3,0,0.5-0.1v0.1h0.9l4.1,3v-14L11.9,6.5z M5,18
				l-1-3.5h2L7,17L5,18z M1.5,13.5C1.2,13.5,1,13.3,1,13V8c0-0.3,0.2-0.5,0.5-0.5H9v6H1.5z M11,13.5h-1v-6h1V13.5z M15,15.5l-3-2.1
				V7.6l3-2.1V15.5z"/>
		</g>
	</g>
	<g id="volume_-_high_interface_6_">
		<g>
			<path fill-rule="evenodd" clip-rule="evenodd" fill="#738BD7" d="M19,10.5c0-1.4-0.8-2.6-2-3.2v1.2c0.6,0.5,1,1.2,1,2
				c0,0.8-0.4,1.5-1,2v1.2C18.2,13.1,19,11.9,19,10.5z M17,3.8v1.1c2.3,0.8,4,3,4,5.7c0,2.6-1.7,4.8-4,5.7v1.1c2.9-0.9,5-3.5,5-6.7
				C22,7.3,19.9,4.7,17,3.8z"/>
		</g>
	</g>
</g>
</svg>
