<?xml version="1.0" encoding="utf-8"?>
<!-- Generator: Adobe Illustrator 19.0.0, SVG Export Plug-In . SVG Version: 6.00 Build 0)  -->
<svg version="1.1" id="Isolation_Mode" xmlns="http://www.w3.org/2000/svg" xmlns:xlink="http://www.w3.org/1999/xlink" x="0px"
	 y="0px" viewBox="-41 43 16 16" style="enable-background:new -41 43 16 16;" xml:space="preserve">
<style type="text/css">
	.st0{fill:#FFFFFF;}
	.st1{fill:none;stroke:#98A9B4;stroke-width:0.7;stroke-miterlimit:10;}
</style>
<circle class="st0" cx="-33" cy="51" r="8"/>
<path class="st1" d="M-31.3,46.6c0,0-2.2-0.3-4.1,1.2c0,0,1.8,2.8,2,3c0.2,0.3,0.1,1.1,0,1.3c-0.1,0.2-1,1.4-1.6,1.5
	c-0.6,0.1-1.6,0.2-1.7,0.9c-0.1,0.7,1.3,1.1,2.8,1.1c1.5,0,1.6-0.6,1.9-0.8c0.3-0.2,0.9-0.4,1.2-0.5c0.3-0.1,1.5-0.8,1.6-1.2
	c0.1-0.4-0.6-1.8-0.9-2.5C-30.5,49.7-31.3,46.6-31.3,46.6z"/>
</svg>
