<?xml version="1.0" encoding="utf-8"?>
<!-- Generator: Adobe Illustrator 17.1.0, SVG Export Plug-In . SVG Version: 6.00 Build 0)  -->
<!DOCTYPE svg PUBLIC "-//W3C//DTD SVG 1.1//EN" "http://www.w3.org/Graphics/SVG/1.1/DTD/svg11.dtd">
<svg version="1.1" id="Isolation_Mode" xmlns="http://www.w3.org/2000/svg" xmlns:xlink="http://www.w3.org/1999/xlink" x="0px"
	 y="0px" viewBox="0 0 6 6" enable-background="new 0 0 6 6" xml:space="preserve">
<path fill-rule="evenodd" clip-rule="evenodd" fill="#737F8D" d="M5.8,0.1C6,0.3,6,0.7,5.8,0.9l-5,5C0.7,6,0.4,6,0.2,5.9
	C0,5.7,0,5.3,0.2,5.1l5-5C5.3,0,5.6,0,5.8,0.1z"/>
<path fill-rule="evenodd" clip-rule="evenodd" fill="#737F8D" d="M0.2,0.1C0,0.3,0,0.7,0.2,0.9l5,5C5.3,6,5.6,6,5.8,5.9
	C6,5.7,6,5.3,5.8,5.1l-5-5C0.7,0,0.4,0,0.2,0.1z"/>
</svg>
