<?xml version="1.0" encoding="utf-8"?>
<!-- Generator: Adobe Illustrator 17.1.0, SVG Export Plug-In . SVG Version: 6.00 Build 0)  -->
<!DOCTYPE svg PUBLIC "-//W3C//DTD SVG 1.1//EN" "http://www.w3.org/Graphics/SVG/1.1/DTD/svg11.dtd">
<svg version="1.1" id="Layer_1" xmlns="http://www.w3.org/2000/svg" xmlns:xlink="http://www.w3.org/1999/xlink" x="0px" y="0px"
	 viewBox="0 0 16 16" enable-background="new 0 0 16 16" xml:space="preserve">
<g id="interface_-_login_enter">
	<g>
		<path fill="#87909C" d="M13,13.5c0,0.3-0.2,0.5-0.5,0.5h-11C1.2,14,1,13.8,1,13.5v-12C1,1.2,1.2,1,1.5,1h11C12.8,1,13,1.2,13,1.5
			V4h1V1c0-0.6-0.4-1-1-1H1C0.4,0,0,0.4,0,1v13c0,0.6,0.4,1,1,1h12c0.6,0,1-0.4,1-1v-3h-1V13.5z M15.5,7H3.7l3.2-3.2
			C7,3.6,7,3.3,6.9,3.1C6.7,3,6.4,3,6.2,3.1l-4,4c0,0,0,0-0.1,0C2,7.2,2,7.4,2,7.5l0,0l0,0c0,0.1,0,0.3,0.1,0.4c0,0,0,0,0.1,0l4,4
			c0.2,0.2,0.5,0.2,0.7,0s0.2-0.5,0-0.7L3.7,8h11.8C15.8,8,16,7.8,16,7.5S15.8,7,15.5,7z"/>
	</g>
</g>
</svg>
