<?xml version="1.0" encoding="UTF-8" standalone="no"?>
<svg width="17px" height="19px" viewBox="0 0 17 19" version="1.1" xmlns="http://www.w3.org/2000/svg" xmlns:xlink="http://www.w3.org/1999/xlink" xmlns:sketch="http://www.bohemiancoding.com/sketch/ns">
    <!-- Generator: Sketch 3.3.3 (12081) - http://www.bohemiancoding.com/sketch -->
    <title>Rectangle 2962 + Path</title>
    <desc>Created with Sketch.</desc>
    <defs></defs>
    <g id="Welcome" stroke="none" stroke-width="1" fill="none" fill-rule="evenodd" sketch:type="MSPage">
        <g id="Desktop-HD" sketch:type="MSArtboardGroup" transform="translate(-679.000000, -731.000000)">
            <g id="//-Chat" sketch:type="MSLayerGroup" transform="translate(319.000000, 0.000000)">
                <g id="=-Text-Copy-3" transform="translate(20.000000, 345.000000)" sketch:type="MSShapeGroup">
                    <g id="=-Link" transform="translate(60.000000, 165.000000)">
                        <g id="=-Meta" transform="translate(0.000000, 23.000000)">
                            <g id="Rectangle-2657-+-WATCH-ON-YOUTUBE-+-play_button" transform="translate(143.000000, 172.000000)">
                                <g id="play_button">
                                    <g id="Group" transform="translate(122.000000, 15.000000)">
                                        <g id="Rectangle-2962-+-Path" transform="translate(14.000000, 11.000000)">
                                            <rect id="Rectangle-2962" x="0" y="0" width="19" height="19"></rect>
                                            <path d="M4.35263158,1 C3.92631579,1 3.49210526,1.10818182 3.12105263,1.31681818 C2.42631579,1.70318182 2,2.39090909 2,3.125 L2,15.875 C2,16.6090909 2.42631579,17.2968182 3.12105263,17.6831818 C3.49210526,17.8910455 3.92631579,18 4.35263158,18 C4.71578947,18 5.07894737,17.9227273 5.41052632,17.7759091 L15.6973684,11.4009091 C16.4939474,11.0377273 17,10.3036364 17,9.5 C17,8.69636364 16.4939474,7.96227273 15.6973684,7.59909091 L5.41052632,1.22409091 C5.07894737,1.07727273 4.71578947,1 4.35263158,1 Z" id="Path" stroke="#FFFFFF" stroke-width="2"></path>
                                        </g>
                                    </g>
                                </g>
                            </g>
                        </g>
                    </g>
                </g>
            </g>
        </g>
    </g>
</svg>