<?xml version="1.0" encoding="UTF-8" standalone="no"?>
<svg width="55px" height="54px" viewBox="0 0 55 54" version="1.1" xmlns="http://www.w3.org/2000/svg" xmlns:xlink="http://www.w3.org/1999/xlink" xmlns:sketch="https://web.archive.org/web/20151128205540/http://www.bohemiancoding.com/sketch/ns">
    <!-- Generator: Sketch 3.3.3 (12081) - http://www.bohemiancoding.com/sketch -->
    <title>Rectangle 1083 + path3366</title>
    <desc>Created with Sketch.</desc>
    <defs></defs>
    <g id="Welcome" stroke="none" stroke-width="1" fill="none" fill-rule="evenodd" sketch:type="MSPage">
        <g id="Desktop-HD---Twitch-Intagration---Account-01" sketch:type="MSArtboardGroup" transform="translate(-655.000000, -254.000000)">
            <g id="//-Modal" sketch:type="MSLayerGroup" transform="translate(320.000000, 187.000000)">
                <g id="//-Settings" transform="translate(191.000000, 0.000000)" sketch:type="MSShapeGroup">
                    <g id="Group">
                        <g id="Rectangle-1083-+-Bitmap-+-Bitmap" transform="translate(44.000000, 58.000000)">
                            <g id="Group">
                                <g id="Rectangle-1083-+-path3366">
                                    <g transform="translate(92.000000, 1.000000)">
                                        <g>
                                            <rect id="Rectangle-1083" opacity="0.100000001" x="0" y="0" width="70" height="70" rx="3"></rect>
                                            <path d="M55.8220201,31.4491965 C64.3679889,31.3591755 58.066187,24.1151353 54.1218961,22.2703663 C54.1218961,22.2703663 59.3356214,10.1670638 58.7915785,9.85209709 C58.7235769,9.78460579 52.5804555,21.7304383 52.5804555,21.7304383 C49.4298507,20.4481003 46.3242922,19.7957713 42.9240441,19.3458313 C38.9570819,11.4718931 34.786118,7.48993005 31.5898837,8.05236226 C28.2349659,8.63725187 26.3534963,10.9769609 26.0588036,16.8711492 C20.9810996,11.4043991 18.2156548,18.8958942 18.8730356,23.4627103 C12.8206202,23.7326773 8.24167709,27.5796884 8.24167709,27.5796884 C8.24167709,27.5796884 15.4728178,24.8125394 19.0543873,24.9700214 C19.2357299,28.5470654 20.1423702,31.6066785 21.6611517,34.8912555 C15.3141343,44.1150767 12.9339582,57.1406209 28.2802963,50.4367818 C26.0361324,56.2632319 31.1591788,56.3532229 37.2796321,53.2936098 L44.6695046,62 L38.7530681,52.2812388 C41.7679599,50.1668148 43.80811,47.7371238 45.9162646,44.7225017 C63.4385837,45.9373457 67.0428486,39.4581706 55.8220201,31.4716965 L55.8220201,31.4491965 Z M39.750484,19.1883493 C34.7181104,19.0983253 30.0937734,21.6179563 30.0937734,21.6179563 C30.388451,12.7317041 34.8314484,10.7519858 39.750484,19.1883493 L39.750484,19.1883493 Z M26.0814779,23.4402223 L21.9558322,23.3277313 C21.3437878,20.2906153 23.5199501,16.9611312 25.8774641,18.9858732 C25.424088,19.8407713 25.9227642,22.5853243 26.0814779,23.4402223 L26.0814779,23.4402223 Z M23.2025953,37.4784316 C27.4415759,44.3625527 28.915015,44.7225017 28.915015,44.7225017 C21.3891333,47.9395968 19.0997207,45.0149687 23.2025953,37.4784316 L23.2025953,37.4784316 Z M33.5846853,46.8147347 L35.8288522,50.5942518 C30.615139,53.1811278 27.2828925,50.4592668 33.5846853,46.8147347 L33.5846853,46.8147347 Z M37.3023003,49.6268808 C36.7582635,48.4345278 36.4408966,47.7821148 35.9648614,46.6572617 C37.5289763,45.9373457 40.7025515,44.7225017 40.7025515,44.7225017 C40.7025515,44.7225017 36.9396031,45.0599567 36.032869,45.1724507 C39.5691264,42.6527687 47.8884101,32.5965495 47.8884101,32.5965495 L45.5535674,31.4042055 C41.2465943,36.1735935 36.9849395,40.3580626 31.2498547,43.7551307 C23.7466351,35.5211805 22.8625693,31.1567325 21.9331731,25.0825034 C21.9331731,25.0825034 24.744039,25.3074794 25.8321186,25.4424614 C25.31075,27.3547244 24.970724,31.0667505 24.970724,31.0667505 C24.970724,31.0667505 25.5374381,27.8046614 26.9201983,26.4098444 C28.0082779,31.9441365 31.6805474,42.5852777 31.6805474,42.5852777 L33.8340446,41.0779666 C32.1112493,34.9137585 30.3657888,29.0195054 30.2297826,22.6078213 C38.1636919,19.6832893 45.3495506,21.6854443 50.9713065,24.2276173 C50.2005786,25.2174884 48.772476,27.0847574 48.772476,27.0847574 C48.772476,27.0847574 46.3696286,24.3625993 44.2841452,23.4177223 C45.7122478,24.8575394 47.0270155,26.3873444 47.7750722,27.6921794 C42.2666663,25.9374014 31.0911773,23.9126623 31.0911773,23.9126623 L31.1591788,26.3198504 C37.5743217,27.5796884 43.3774081,29.5369364 49.1805036,32.5515585 C46.6189849,40.5380326 43.5360885,45.9823487 37.3023003,49.6268808 L37.3023003,49.6268808 Z M47.0950201,42.5852777 C48.7271396,39.7056466 50.1099028,36.1510935 50.4045924,33.2714655 C56.47941,37.7933896 58.1115295,42.1128377 47.0950201,42.5852777 L47.0950201,42.5852777 Z M54.2579083,30.5493105 L50.3139166,28.8170324 C50.3139166,28.8170324 51.9004034,26.3873444 52.6937934,25.2174884 C57.0687832,28.5920594 56.0713794,30.1443584 54.2805795,30.5718105 L54.2579083,30.5493105 Z" id="path3366" fill="#377CBD"></path>
                                        </g>
                                    </g>
                                </g>
                            </g>
                        </g>
                    </g>
                </g>
            </g>
        </g>
    </g>
</svg>