<?xml version="1.0" encoding="utf-8"?>
<!-- Generator: Adobe Illustrator 17.1.0, SVG Export Plug-In . SVG Version: 6.00 Build 0)  -->
<!DOCTYPE svg PUBLIC "-//W3C//DTD SVG 1.1//EN" "http://www.w3.org/Graphics/SVG/1.1/DTD/svg11.dtd">
<svg version="1.1" id="Layer_1" xmlns="http://www.w3.org/2000/svg" xmlns:xlink="http://www.w3.org/1999/xlink" x="0px" y="0px"
	 viewBox="0 0 16 16" enable-background="new 0 0 16 16" xml:space="preserve">
<g id="volume_-_high_interface_2_">
	<g>
		<path fill-rule="evenodd" clip-rule="evenodd" fill="#FFFFFF" d="M13,8c0-1.8-1.3-3.2-3-3.4v1c1.1,0.2,2,1.2,2,2.5
			c0,1.2-0.9,2.2-2,2.4v1C11.7,11.2,13,9.8,13,8z M10,1.1v1C12.8,2.6,15,5,15,8c0,3-2.2,5.4-5,5.9v1c3.4-0.5,6-3.4,6-6.9
			C16,4.5,13.4,1.6,10,1.1z M2,5C1.4,5,1,5.4,1,6v4c0,0.6,0.4,1,1,1h2l5,3V2L4,5H2z M4,10H2.5C2.2,10,2,9.8,2,9.5v-3
			C2,6.2,2.2,6,2.5,6H4V10z M5,5.4l3-1.9v9l-3-1.9V5.4z"/>
	</g>
</g>
</svg>
