<?xml version="1.0" encoding="UTF-8" standalone="no"?>
<svg width="54px" height="44px" viewBox="0 0 54 44" version="1.1" xmlns="http://www.w3.org/2000/svg" xmlns:xlink="http://www.w3.org/1999/xlink" xmlns:sketch="https://web.archive.org/web/20151128205507/http://www.bohemiancoding.com/sketch/ns">
    <!-- Generator: Sketch 3.3.3 (12081) - http://www.bohemiancoding.com/sketch -->
    <title>TwitterLogo_white</title>
    <desc>Created with Sketch.</desc>
    <defs></defs>
    <g id="Welcome" stroke="none" stroke-width="1" fill="none" fill-rule="evenodd" sketch:type="MSPage">
        <g id="Desktop-HD---Twitch-Intagration---Account-01" sketch:type="MSArtboardGroup" transform="translate(-931.000000, -258.000000)">
            <g id="//-Modal" sketch:type="MSLayerGroup" transform="translate(320.000000, 187.000000)">
                <g id="//-Settings" transform="translate(191.000000, 0.000000)" sketch:type="MSShapeGroup">
                    <g id="Group">
                        <g id="Rectangle-1083-+-Bitmap-+-Bitmap" transform="translate(44.000000, 58.000000)">
                            <g id="Group">
                                <g id="Rectangle-1083-+-TwitterLogo_white">
                                    <g transform="translate(368.000000, 0.000000)">
                                        <g id="TwitterLogo_white">
                                            <rect id="Rectangle-1083" opacity="0.100000001" x="0" y="0" width="70" height="70" rx="3"></rect>
                                            <path d="M62,18.1949742 C60.0131461,19.0761111 57.8779546,19.6716339 55.6368924,19.9394711 C57.9243718,18.5682871 59.6809174,16.3971469 60.5081312,13.8102271 C58.3676067,15.0796884 55.9965763,16.0017118 53.4730605,16.4986722 C51.4520356,14.3455064 48.5727861,13 45.3863931,13 C39.2678152,13 34.3072973,17.9603204 34.3072973,24.0785032 C34.3072973,24.9468013 34.4054647,25.7923845 34.5942939,26.6032042 C25.3867003,26.1412049 17.2233951,21.7305827 11.7592011,15.0279381 C10.8055745,16.664194 10.2592341,18.5672995 10.2592341,20.5976078 C10.2592341,24.44115 12.2152749,27.8321738 15.1879513,29.8188302 C13.3717546,29.7613519 11.6636014,29.2630089 10.1697575,28.4332273 C10.1689674,28.4794469 10.1689674,28.5258642 10.1689674,28.5724789 C10.1689674,33.9402831 13.9878196,38.4180621 19.055986,39.4356853 C18.1262592,39.688906 17.1475475,39.8242072 16.137035,39.8242072 C15.4231976,39.8242072 14.7291123,39.7548776 14.0528037,39.625502 C15.4625041,44.0270383 19.5539339,47.230023 24.4018655,47.3194996 C20.610271,50.2907934 15.8332492,52.0619554 10.642818,52.0619554 C9.74864479,52.0619554 8.86671788,52.0096126 8,51.9072973 C12.9028421,55.050631 18.726325,56.8846044 24.9827719,56.8846044 C45.3605179,56.8846044 56.5038077,40.0031603 56.5038077,25.3631735 C56.5038077,24.8828048 56.4931417,24.4050038 56.4718095,23.9299682 C58.636234,22.3679798 60.5146494,20.4166795 62,18.1949742" id="Fill-1" fill="#55ACEE"></path>
                                        </g>
                                    </g>
                                </g>
                            </g>
                        </g>
                    </g>
                </g>
            </g>
        </g>
    </g>
</svg>