<?xml version="1.0" encoding="UTF-8" standalone="no"?>
<svg width="13px" height="15px" viewBox="0 0 13 15" version="1.1" xmlns="http://www.w3.org/2000/svg" xmlns:xlink="http://www.w3.org/1999/xlink" xmlns:sketch="http://www.bohemiancoding.com/sketch/ns">
    <!-- Generator: Sketch 3.3.3 (12081) - http://www.bohemiancoding.com/sketch -->
    <title>communication_-_bell_notification_1_</title>
    <desc>Created with Sketch.</desc>
    <defs></defs>
    <g id="Page-1" stroke="none" stroke-width="1" fill="none" fill-rule="evenodd" sketch:type="MSPage">
        <g id="notifications" sketch:type="MSLayerGroup" transform="translate(-2.000000, 0.000000)" fill="#FFFFFF">
            <g id="communication_-_bell_notification_1_" transform="translate(2.000000, 0.000000)" sketch:type="MSShapeGroup">
                <path d="M6.5,15 C7.2,15 7.7,14.6 7.9,14 L5.1,14 C5.3,14.6 5.8,15 6.5,15 L6.5,15 Z M12.5,12 L12,12 L12,5 C12,2.8 10.2,1 8,1 L7.5,1 C7.5,0.4 7.1,0 6.5,0 C5.9,0 5.5,0.4 5.5,1 L5,1 C2.8,1 1,2.8 1,5 L1,12 L0.5,12 C0.2,12 0,12.2 0,12.5 C0,12.8 0.2,13 0.5,13 L12.5,13 C12.8,13 13,12.8 13,12.5 C13,12.2 12.8,12 12.5,12 L12.5,12 Z M11,12 L2,12 L2,5 C2,3.3 3.3,2 5,2 L8,2 C9.7,2 11,3.3 11,5 L11,12 L11,12 Z" id="Shape"></path>
            </g>
        </g>
    </g>
</svg>