<?xml version="1.0" encoding="UTF-8" standalone="no"?>
<svg width="54px" height="54px" viewBox="0 0 54 54" version="1.1" xmlns="http://www.w3.org/2000/svg" xmlns:xlink="http://www.w3.org/1999/xlink" xmlns:sketch="https://web.archive.org/web/20151128205535/http://www.bohemiancoding.com/sketch/ns">
    <!-- Generator: Sketch 3.3.3 (12081) - http://www.bohemiancoding.com/sketch -->
    <title>TwitterLogo_white</title>
    <desc>Created with Sketch.</desc>
    <defs></defs>
    <g id="Welcome" stroke="none" stroke-width="1" fill="none" fill-rule="evenodd" sketch:type="MSPage">
        <g id="Desktop-HD---Twitch-Intagration---Account-01" sketch:type="MSArtboardGroup" transform="translate(-1031.000000, -252.000000)">
            <g id="//-Modal" sketch:type="MSLayerGroup" transform="translate(320.000000, 187.000000)">
                <g id="//-Settings" transform="translate(191.000000, 0.000000)" sketch:type="MSShapeGroup">
                    <g id="Group">
                        <g id="TwitterLogo_white" transform="translate(512.000000, 58.000000)">
                            <rect id="Rectangle-1083" opacity="0.100000001" x="0" y="0" width="70" height="70" rx="3"></rect>
                            <path d="M10.9802843,7 C9.33414764,7 8,8.33394531 8,9.98028431 L8,58.0197157 C8,59.66565 9.33414764,61 10.9802843,61 L36.8430013,61 L36.8430013,40.0884396 L29.805848,40.0884396 L29.805848,31.9386873 L36.8430013,31.9386873 L36.8430013,25.9285484 C36.8430013,18.953712 41.1030072,15.1558222 47.324983,15.1558222 C50.3052673,15.1558222 52.8669359,15.3777754 53.6133221,15.4769159 L53.6133221,22.765967 L49.2980809,22.7679903 C45.9141532,22.7679903 45.2590167,24.3758871 45.2590167,26.7354305 L45.2590167,31.9386873 L53.3292543,31.9386873 L52.2783652,40.0884396 L45.2590167,40.0884396 L45.2590167,61 L59.0197157,61 C60.66565,61 62,59.66565 62,58.0197157 L62,9.98028431 C62,8.33394531 60.66565,7 59.0197157,7 L10.9802843,7 Z" id="Imported-Layers" fill="#3B5998"></path>
                        </g>
                    </g>
                </g>
            </g>
        </g>
    </g>
</svg>