<?xml version="1.0" encoding="utf-8"?>
<!-- Generator: Adobe Illustrator 17.0.2, SVG Export Plug-In . SVG Version: 6.00 Build 0)  -->
<!DOCTYPE svg PUBLIC "-//W3C//DTD SVG 1.1//EN" "http://www.w3.org/Graphics/SVG/1.1/DTD/svg11.dtd">
<svg version="1.1" id="Layer_1" xmlns="http://www.w3.org/2000/svg" xmlns:xlink="http://www.w3.org/1999/xlink" x="0px" y="0px"
	 width="30px" height="40px" viewBox="0 0 30 40" enable-background="new 0 0 30 40" xml:space="preserve">
<path fill-rule="evenodd" clip-rule="evenodd" fill="none" stroke="#747F8D" stroke-width="2" stroke-miterlimit="10" d="M2.867,1
	H18.92L29,10.12V37.1c0,1.049-0.836,1.9-1.867,1.9H2.867C1.836,39,1,38.149,1,37.1V2.9C1,1.851,1.836,1,2.867,1z"/>
<g>
	<path fill-rule="evenodd" clip-rule="evenodd" fill="#747F8D" d="M20.374,9.581c-0.468,0-0.849-0.393-0.849-0.875v-4.88
		l6.394,5.755H20.374z"/>
	<path fill="#747F8D" d="M20.525,6.072l2.788,2.509h-2.788V6.072 M18.525,1.581v7.125c0,1.036,0.828,1.875,1.849,1.875h8.151
		L18.525,1.581L18.525,1.581z"/>
</g>
</svg>
