<?xml version="1.0" encoding="UTF-8" standalone="no"?>
<svg width="19px" height="19px" viewBox="0 0 19 19" version="1.1" xmlns="http://www.w3.org/2000/svg" xmlns:xlink="http://www.w3.org/1999/xlink" xmlns:sketch="http://www.bohemiancoding.com/sketch/ns">
    <!-- Generator: Sketch 3.3.3 (12081) - http://www.bohemiancoding.com/sketch -->
    <title>Fill 1</title>
    <desc>Created with Sketch.</desc>
    <defs></defs>
    <g id="Welcome" stroke="none" stroke-width="1" fill="none" fill-rule="evenodd" sketch:type="MSPage">
        <g id="Desktop-HD" sketch:type="MSArtboardGroup" transform="translate(-592.000000, -731.000000)" fill="#FFFFFF">
            <g id="//-Chat" sketch:type="MSLayerGroup" transform="translate(319.000000, 0.000000)">
                <g id="=-Text-Copy-3" transform="translate(20.000000, 345.000000)" sketch:type="MSShapeGroup">
                    <g id="=-Link" transform="translate(60.000000, 165.000000)">
                        <g id="=-Meta" transform="translate(0.000000, 23.000000)">
                            <g id="Rectangle-2657-+-WATCH-ON-YOUTUBE-+-play_button" transform="translate(143.000000, 172.000000)">
                                <g id="play_button">
                                    <g id="Group" transform="translate(0.000000, 15.000000)">
                                        <path d="M66.8888485,29.9850132 C66.8278619,29.9938862 66.765476,29.9984803 66.7020031,29.9984803 L51.2847695,29.9984803 C50.5768615,29.9984803 50,29.4228779 50,28.7136535 L50,13.2957324 C50,13.244552 50.0029932,13.1940782 50.0088131,13.1444749 C50.0030005,13.1005977 50,13.0557837 50,13.0102153 C50,12.4583118 50.4460033,12.0109056 50.996856,12.0109056 L54.6408504,12.0109056 L60.9926788,12.0109056 C60.9924647,12.0254417 60.9923756,12.0400154 60.9924114,12.0546175 C60.9937371,12.5926973 61.1606158,13.0140922 61.5066084,13.010193 L66.0005438,12.980447 L66.0005438,12.980447 L56.2259239,22.7493688 C55.9782649,22.9975841 55.9342745,23.5623999 56.1845404,23.8093156 C56.4348062,24.0575308 56.9365342,24.05883 57.1854967,23.8093151 L66.9882705,14.0119725 L66.9882705,18.5116346 C66.9882705,18.8602689 67.4871817,19.0087364 68.0207662,19.0060546 C68.5582034,19.0047137 68.9919197,18.8602689 68.9899934,18.5116346 L68.9314889,12.2174146 C68.9430677,12.142673 68.9491138,12.0646359 68.9489162,11.9844332 C68.9487543,11.9186862 68.9466699,11.8544819 68.9425065,11.7924248 C68.9523818,11.7242057 68.9558007,11.6550933 68.952114,11.58806 L68.9899934,11.5116482 C68.9891209,11.3531359 68.900066,11.2329787 68.7531317,11.1490744 C68.6822117,11.0617538 68.5899003,11.0116005 68.472835,11.0116005 L68.2638976,11.0116005 C68.1862465,11.0036328 68.1047829,10.9997978 68.0207662,11.0000082 C67.940455,11.00021 67.8608857,11.0040438 67.7836609,11.0116005 L61.5066084,11.0116005 C61.1699713,11.0134973 61.0003828,11.4878573 60.9926788,12.0109056 L57.9957044,12.0109056 L57.9969313,12.0109056 C58.5474797,12.0109056 58.9937873,12.4544641 58.9937873,13.0102153 C58.9937873,13.5621189 58.547784,14.009525 57.9969313,14.009525 L55.3774901,14.009525 L52.7605025,14.009525 C51.9986194,14.009525 51.9986194,14.463583 51.9986194,14.7853607 L51.9986194,27.2403329 C51.9986194,27.5621106 51.9986194,27.9998609 52.7605025,27.9998609 L65.278295,27.9998609 C65.6012386,27.9998609 65.9889552,27.9998609 65.9889552,27.2403329 L65.9889552,24.6221678 L65.9889552,21.9929499 C65.9889552,21.4424015 66.4325136,20.9960939 66.9882649,20.9960939 C67.5401684,20.9960939 67.9875746,21.4420972 67.9875746,21.9929499 L67.9875746,28.9930252 C67.9875746,29.5435735 67.5440162,29.9898812 66.9882649,29.9898812 C66.9547143,29.9898812 66.9215498,29.988233 66.8888485,29.9850132 Z" id="Fill-1"></path>
                                    </g>
                                </g>
                            </g>
                        </g>
                    </g>
                </g>
            </g>
        </g>
    </g>
</svg>