<?xml version="1.0" encoding="UTF-8" standalone="no"?>
<svg width="16px" height="13px" viewBox="0 0 16 13" version="1.1" xmlns="http://www.w3.org/2000/svg" xmlns:xlink="http://www.w3.org/1999/xlink" xmlns:sketch="http://www.bohemiancoding.com/sketch/ns">
    <!-- Generator: Sketch 3.3.3 (12081) - http://www.bohemiancoding.com/sketch -->
    <title>twitter</title>
    <desc>Created with Sketch.</desc>
    <defs></defs>
    <g id="Page-1" stroke="none" stroke-width="1" fill="none" fill-rule="evenodd" sketch:type="MSPage">
        <g id="twitter" sketch:type="MSLayerGroup" transform="translate(0.000000, -2.000000)">
            <rect id="Rectangle-1" sketch:type="MSShapeGroup" x="0" y="0" width="16" height="16"></rect>
            <path d="M5,15 C3.1,15 1.4,14.5 0,13.5 L0.8,13.5 C2.3,13.5 3.8,13 4.9,12.1 C3.5,12.1 2.3,11.1 1.8,9.8 C2,9.8 2.2,9.9 2.4,9.9 C2.7,9.9 3,9.9 3.3,9.8 C1.8,9.5 0.6,8.2 0.6,6.6 L0.6,6.6 C1,6.8 1.5,7 2.1,7 C1.2,6.4 0.7,5.4 0.7,4.2 C0.7,3.6 0.9,3 1.1,2.5 C2.7,4.5 5.1,5.8 7.9,5.9 C7.8,5.8 7.8,5.5 7.8,5.3 C7.8,3.5 9.3,2 11.1,2 C12,2 12.9,2.4 13.5,3 C14.2,2.9 15,2.6 15.6,2.2 C15.4,3 14.8,3.6 14.2,4 C14.8,4 15.4,3.8 16,3.5 C15.6,4.2 15,4.7 14.4,5.2 L14.4,5.6 C14.4,10 11.1,15 5,15" id="Shape" fill="#FFFFFF" sketch:type="MSShapeGroup"></path>
        </g>
    </g>
</svg>