<?xml version="1.0" encoding="utf-8"?>
<!-- Generator: Adobe Illustrator 17.1.0, SVG Export Plug-In . SVG Version: 6.00 Build 0)  -->
<!DOCTYPE svg PUBLIC "-//W3C//DTD SVG 1.1//EN" "http://www.w3.org/Graphics/SVG/1.1/DTD/svg11.dtd">
<svg version="1.1" id="Layer_1" xmlns="http://www.w3.org/2000/svg" xmlns:xlink="http://www.w3.org/1999/xlink" x="0px" y="0px"
	 viewBox="0 0 16 16" enable-background="new 0 0 16 16" xml:space="preserve">
<g id="music_-_interface_repeat_2_">
	<g>
		<path fill-rule="evenodd" clip-rule="evenodd" fill="#747F8C" d="M14.3,6C13.6,3.1,11.1,1,8,1C5.7,1,3.7,2.2,2.5,4h1.2
			c1-1.2,2.5-2,4.2-2c2.5,0,4.6,1.7,5.3,4H12l2,3l2-3H14.3z M8,13c-2.5,0-4.6-1.7-5.3-4H4L2,6L0,9h1.7c0.7,2.9,3.2,5,6.3,5
			c2.3,0,4.3-1.2,5.5-3h-1.2C11.2,12.2,9.7,13,8,13z"/>
	</g>
</g>
</svg>
